{"title":"The.Dead.Zone.S01E00.Unaired.Pilot.DVDRip.XviD-SFM","uid":5133946,"size":732930095,"categoryP":"video","categoryS":"tv_shows","magnet":"?xt=urn:btih:c8f98a0906fdcb0819a9e16b338cba9d43a94de5&amp;dn=The.Dead.Zone.S01E00.Unaired.Pilot.DVDRip.XviD-SFM&amp;tr=udp%3A%2F%2Ftracker.openbittorrent.com%3A80&amp;tr=udp%3A%2F%2Fopen.demonii.com%3A1337&amp;tr=udp%3A%2F%2Ftracker.coppersurfer.tk%3A6969&amp;tr=udp%3A%2F%2Fexodus.desync.com%3A6969","seeders":0,"leechers":1,"uploader":null,"files":2,"time":1256338535,"description":"Episode Summary from http://www.tv.com/the-dead-zone/unaired-pilot/episode/284334/summary.html\nThe unaired pilot is an earlier version of the first two episodes of the series, &quot;Wheel of Fortune,&quot; and &quot;What It Seems.&quot; The main differences are that several scenes were re-filmed, and two actors (Reverend Purdy and Dana Bright) were later re-cast. See the episode review for more information.\n\n\n\nMediainfo:\nGeneral\nComplete name                    : C:The.Dead.Zone.S01E00.Unaired.Pilot.DVDRip.XviD-SFMThe.Dead.Zone.S01E00.Unaired.Pilot.DVDRip.XviD-SFM.avi\nFormat                           : AVI\nFormat/Info                      : Audio Video Interleave\nFile size                        : 699 MiB\nDuration                         : 1h 24mn\nOverall bit rate                 : 1 159 Kbps\nWriting application              : VirtualDubMod 1.4.13\nWriting library                  : VirtualDub build 14328/release\n\nVideo\nID                               : 0\nFormat                           : MPEG-4 Visual\nFormat settings, BVOP            : No\nFormat settings, QPel            : No\nFormat settings, GMC             : No warppoints\nFormat settings, Matrix          : Default (H.263)\nCodec ID                         : XVID\nCodec ID/Hint                    : XviD\nDuration                         : 1h 24mn\nBit rate                         : 1 031 Kbps\nWidth                            : 576 pixels\nHeight                           : 320 pixels\nDisplay aspect ratio             : 16:9\nFrame rate                       : 23.976 fps\nResolution                       : 24 bits\nColorimetry                      : 4:2:0\nScan type                        : Progressive\nBits/(Pixel*Frame)               : 0.233\nStream size                      : 622 MiB (89%)\n\nAudio\nID                               : 1\nFormat                           : MPEG Audio\nFormat version                   : Version 1\nFormat profile                   : Layer 3\nCodec ID                         : 55\nCodec ID/Hint                    : MP3\nDuration                         : 1h 24mn\nBit rate mode                    : Variable\nBit rate                         : 115 Kbps\nNominal bit rate                 : 128 Kbps\nChannel(s)                       : 2 channels\nSampling rate                    : 48.0 KHz\nResolution                       : 16 bits\nStream size                      : 69.6 MiB (10%)\nAlignment                        : Aligned on interleaves\nInterleave, duration             : 24 ms (0.58 video frame)\nInterleave, preload duration     : 405 ms\nWriting library                  : LAME3.92 \nEncoding settings                : -m j -V 0 -q 2 -lowpass 16.5 --abr 128\n\n","torrent":{"xt":"urn:btih:c8f98a0906fdcb0819a9e16b338cba9d43a94de5","amp;dn":"The.Dead.Zone.S01E00.Unaired.Pilot.DVDRip.XviD-SFM","amp;tr":["udp%3A%2F%2Ftracker.openbittorrent.com%3A80","udp%3A%2F%2Fopen.demonii.com%3A1337","udp%3A%2F%2Ftracker.coppersurfer.tk%3A6969","udp%3A%2F%2Fexodus.desync.com%3A6969"],"infoHash":"c8f98a0906fdcb0819a9e16b338cba9d43a94de5","infoHashBuffer":{"type":"Buffer","data":[200,249,138,9,6,253,203,8,25,169,225,107,51,140,186,157,67,169,77,229]},"announce":[],"urlList":[]}}